<svg width="176" height="176" viewBox="0 0 176 176" fill="none" xmlns="http://www.w3.org/2000/svg">
<path fill-rule="evenodd" clip-rule="evenodd" d="M65.5558 2.65578C53.9483 4.62269 40.4328 10.1581 30.6143 16.9661C25.6062 20.4391 11.2413 34.1347 15.6498 31.2332C26.9311 23.8098 35.3422 20.2307 46.4539 18.1266C62.772 15.0356 83.1602 19.6144 96.9512 29.4672C111.312 39.7262 121.54 55.1379 125.133 71.929C126.627 78.9091 126.622 93.1611 125.124 100.164C118.564 130.827 92.5314 153.011 61.0747 154.746C46.8885 155.528 32.4214 151.571 19.9447 143.497L13 139.003L20.1923 146.069C27.8918 153.634 32.65 157.101 41.2883 161.442C52.9436 167.298 61.3548 169.385 75.4592 169.92C94.9571 170.66 110.492 166.301 126.477 155.607C133.972 150.593 146.382 137.44 150.974 129.644C163.698 108.039 166.429 83.0696 158.671 59.2847C149.213 30.2896 123.725 8.36855 93.2915 3.05523C86.3377 1.84173 71.6155 1.6295 65.5558 2.65578Z" fill="#D32F2F"/>
</svg>
